<mxfile host="app.diagrams.net" modified="2020-09-29T05:45:07.380Z" agent="5.0 (Windows)" etag="oV_oP6z6H4FXNYVnuWLE" version="13.7.5" type="github">
  <diagram id="a-hNKrIe5wcMUVFYVmN9" name="Page-1">
    <mxGraphModel dx="1038" dy="575" grid="1" gridSize="10" guides="1" tooltips="1" connect="1" arrows="1" fold="1" page="1" pageScale="1" pageWidth="827" pageHeight="1169" math="0" shadow="0">
      <root>
        <mxCell id="0" />
        <mxCell id="1" parent="0" />
        <mxCell id="E4Z5nEvZud3JDpQfC3DB-65" value="" style="rounded=0;whiteSpace=wrap;html=1;" parent="1" vertex="1">
          <mxGeometry x="210" y="300" width="120" height="60" as="geometry" />
        </mxCell>
        <mxCell id="E4Z5nEvZud3JDpQfC3DB-8" style="edgeStyle=orthogonalEdgeStyle;rounded=0;orthogonalLoop=1;jettySize=auto;html=1;exitX=0.5;exitY=0;exitDx=0;exitDy=0;entryX=0.07;entryY=1;entryDx=0;entryDy=0;entryPerimeter=0;" parent="1" source="E4Z5nEvZud3JDpQfC3DB-1" target="E4Z5nEvZud3JDpQfC3DB-3" edge="1">
          <mxGeometry relative="1" as="geometry" />
        </mxCell>
        <mxCell id="E4Z5nEvZud3JDpQfC3DB-1" value="User Phone" style="rounded=0;whiteSpace=wrap;html=1;" parent="1" vertex="1">
          <mxGeometry x="160" y="720" width="70" height="90" as="geometry" />
        </mxCell>
        <mxCell id="E4Z5nEvZud3JDpQfC3DB-9" style="edgeStyle=orthogonalEdgeStyle;rounded=0;orthogonalLoop=1;jettySize=auto;html=1;exitX=0.5;exitY=0;exitDx=0;exitDy=0;entryX=0.928;entryY=1.1;entryDx=0;entryDy=0;entryPerimeter=0;" parent="1" source="E4Z5nEvZud3JDpQfC3DB-2" target="E4Z5nEvZud3JDpQfC3DB-3" edge="1">
          <mxGeometry relative="1" as="geometry" />
        </mxCell>
        <mxCell id="E4Z5nEvZud3JDpQfC3DB-2" value="Driver Phone" style="rounded=0;whiteSpace=wrap;html=1;" parent="1" vertex="1">
          <mxGeometry x="590" y="720" width="70" height="90" as="geometry" />
        </mxCell>
        <mxCell id="E4Z5nEvZud3JDpQfC3DB-61" style="edgeStyle=orthogonalEdgeStyle;rounded=0;orthogonalLoop=1;jettySize=auto;html=1;entryX=1;entryY=0.5;entryDx=0;entryDy=0;" parent="1" source="E4Z5nEvZud3JDpQfC3DB-3" target="E4Z5nEvZud3JDpQfC3DB-1" edge="1">
          <mxGeometry relative="1" as="geometry">
            <Array as="points">
              <mxPoint x="280" y="765" />
            </Array>
          </mxGeometry>
        </mxCell>
        <mxCell id="E4Z5nEvZud3JDpQfC3DB-62" style="edgeStyle=orthogonalEdgeStyle;rounded=0;orthogonalLoop=1;jettySize=auto;html=1;entryX=0;entryY=0.5;entryDx=0;entryDy=0;exitX=0.75;exitY=1;exitDx=0;exitDy=0;" parent="1" source="E4Z5nEvZud3JDpQfC3DB-3" target="E4Z5nEvZud3JDpQfC3DB-2" edge="1">
          <mxGeometry relative="1" as="geometry">
            <mxPoint x="470" y="700" as="sourcePoint" />
          </mxGeometry>
        </mxCell>
        <mxCell id="E4Z5nEvZud3JDpQfC3DB-3" value="Web Application Firewall" style="rounded=0;whiteSpace=wrap;html=1;" parent="1" vertex="1">
          <mxGeometry x="160" y="660" width="500" height="30" as="geometry" />
        </mxCell>
        <mxCell id="E4Z5nEvZud3JDpQfC3DB-11" style="edgeStyle=orthogonalEdgeStyle;rounded=0;orthogonalLoop=1;jettySize=auto;html=1;exitX=0.25;exitY=0;exitDx=0;exitDy=0;entryX=0.541;entryY=1.067;entryDx=0;entryDy=0;entryPerimeter=0;" parent="1" source="E4Z5nEvZud3JDpQfC3DB-4" edge="1">
          <mxGeometry relative="1" as="geometry">
            <mxPoint x="279.02" y="572.01" as="targetPoint" />
          </mxGeometry>
        </mxCell>
        <mxCell id="E4Z5nEvZud3JDpQfC3DB-70" style="edgeStyle=orthogonalEdgeStyle;rounded=0;orthogonalLoop=1;jettySize=auto;html=1;exitX=0.5;exitY=0;exitDx=0;exitDy=0;" parent="1" source="E4Z5nEvZud3JDpQfC3DB-4" target="E4Z5nEvZud3JDpQfC3DB-69" edge="1">
          <mxGeometry relative="1" as="geometry" />
        </mxCell>
        <mxCell id="E4Z5nEvZud3JDpQfC3DB-4" value="Load Balancer" style="rounded=0;whiteSpace=wrap;html=1;" parent="1" vertex="1">
          <mxGeometry x="160" y="600" width="500" height="35" as="geometry" />
        </mxCell>
        <mxCell id="E4Z5nEvZud3JDpQfC3DB-20" style="edgeStyle=orthogonalEdgeStyle;rounded=0;orthogonalLoop=1;jettySize=auto;html=1;exitX=0.5;exitY=0;exitDx=0;exitDy=0;entryX=0.5;entryY=1;entryDx=0;entryDy=0;" parent="1" source="E4Z5nEvZud3JDpQfC3DB-13" target="E4Z5nEvZud3JDpQfC3DB-18" edge="1">
          <mxGeometry relative="1" as="geometry" />
        </mxCell>
        <mxCell id="E4Z5nEvZud3JDpQfC3DB-13" value="Kafka Rest API" style="rounded=0;whiteSpace=wrap;html=1;" parent="1" vertex="1">
          <mxGeometry x="210" y="510" width="120" height="60" as="geometry" />
        </mxCell>
        <mxCell id="E4Z5nEvZud3JDpQfC3DB-57" value="" style="edgeStyle=orthogonalEdgeStyle;rounded=0;orthogonalLoop=1;jettySize=auto;html=1;" parent="1" source="E4Z5nEvZud3JDpQfC3DB-14" target="E4Z5nEvZud3JDpQfC3DB-25" edge="1">
          <mxGeometry relative="1" as="geometry" />
        </mxCell>
        <mxCell id="E4Z5nEvZud3JDpQfC3DB-14" value="Web Socket" style="rounded=0;whiteSpace=wrap;html=1;" parent="1" vertex="1">
          <mxGeometry x="490" y="510" width="120" height="60" as="geometry" />
        </mxCell>
        <mxCell id="E4Z5nEvZud3JDpQfC3DB-64" style="edgeStyle=orthogonalEdgeStyle;rounded=0;orthogonalLoop=1;jettySize=auto;html=1;exitX=0.5;exitY=0;exitDx=0;exitDy=0;entryX=0.5;entryY=1;entryDx=0;entryDy=0;" parent="1" source="E4Z5nEvZud3JDpQfC3DB-18" target="E4Z5nEvZud3JDpQfC3DB-28" edge="1">
          <mxGeometry relative="1" as="geometry" />
        </mxCell>
        <mxCell id="E4Z5nEvZud3JDpQfC3DB-71" style="edgeStyle=orthogonalEdgeStyle;rounded=0;orthogonalLoop=1;jettySize=auto;html=1;exitX=0;exitY=0.5;exitDx=0;exitDy=0;entryX=0.5;entryY=1;entryDx=0;entryDy=0;" parent="1" source="E4Z5nEvZud3JDpQfC3DB-18" target="E4Z5nEvZud3JDpQfC3DB-19" edge="1">
          <mxGeometry relative="1" as="geometry" />
        </mxCell>
        <mxCell id="E4Z5nEvZud3JDpQfC3DB-80" style="edgeStyle=orthogonalEdgeStyle;rounded=0;orthogonalLoop=1;jettySize=auto;html=1;entryX=0;entryY=0.5;entryDx=0;entryDy=0;entryPerimeter=0;" parent="1" source="E4Z5nEvZud3JDpQfC3DB-18" target="E4Z5nEvZud3JDpQfC3DB-39" edge="1">
          <mxGeometry relative="1" as="geometry">
            <Array as="points">
              <mxPoint x="50" y="440" />
              <mxPoint x="50" y="160" />
            </Array>
          </mxGeometry>
        </mxCell>
        <mxCell id="E4Z5nEvZud3JDpQfC3DB-18" value="Kafka" style="shape=process;whiteSpace=wrap;html=1;backgroundOutline=1;" parent="1" vertex="1">
          <mxGeometry x="210" y="410" width="120" height="60" as="geometry" />
        </mxCell>
        <mxCell id="E4Z5nEvZud3JDpQfC3DB-19" value="&lt;div&gt;HADOOP&lt;/div&gt;&lt;div&gt;HIVE&lt;/div&gt;&lt;div&gt;HDFS&lt;br&gt;&lt;/div&gt;" style="rounded=0;whiteSpace=wrap;html=1;" parent="1" vertex="1">
          <mxGeometry x="100" y="340" width="120" height="60" as="geometry" />
        </mxCell>
        <mxCell id="E4Z5nEvZud3JDpQfC3DB-22" value="" style="ellipse;whiteSpace=wrap;html=1;aspect=fixed;" parent="1" vertex="1">
          <mxGeometry x="430" y="170" width="300" height="300" as="geometry" />
        </mxCell>
        <mxCell id="E4Z5nEvZud3JDpQfC3DB-23" value="Location Server Region 3" style="rounded=0;whiteSpace=wrap;html=1;" parent="1" vertex="1">
          <mxGeometry x="470" y="150" width="120" height="60" as="geometry" />
        </mxCell>
        <mxCell id="E4Z5nEvZud3JDpQfC3DB-24" value="Location Server Region 2" style="rounded=0;whiteSpace=wrap;html=1;" parent="1" vertex="1">
          <mxGeometry x="680" y="270" width="120" height="60" as="geometry" />
        </mxCell>
        <mxCell id="E4Z5nEvZud3JDpQfC3DB-25" value="Location Server Region 1" style="rounded=0;whiteSpace=wrap;html=1;" parent="1" vertex="1">
          <mxGeometry x="490" y="420" width="120" height="60" as="geometry" />
        </mxCell>
        <mxCell id="E4Z5nEvZud3JDpQfC3DB-26" value="Location Server Region 4" style="rounded=0;whiteSpace=wrap;html=1;" parent="1" vertex="1">
          <mxGeometry x="380" y="300" width="120" height="60" as="geometry" />
        </mxCell>
        <mxCell id="E4Z5nEvZud3JDpQfC3DB-28" value="ETA" style="rounded=0;whiteSpace=wrap;html=1;" parent="1" vertex="1">
          <mxGeometry x="190" y="310" width="120" height="60" as="geometry" />
        </mxCell>
        <mxCell id="E4Z5nEvZud3JDpQfC3DB-38" value="" style="ellipse;whiteSpace=wrap;html=1;" parent="1" vertex="1">
          <mxGeometry x="130" y="90" width="170" height="160" as="geometry" />
        </mxCell>
        <mxCell id="E4Z5nEvZud3JDpQfC3DB-35" value="Node Region 1" style="shape=cylinder3;whiteSpace=wrap;html=1;boundedLbl=1;backgroundOutline=1;size=15;" parent="1" vertex="1">
          <mxGeometry x="165" y="200" width="60" height="80" as="geometry" />
        </mxCell>
        <mxCell id="E4Z5nEvZud3JDpQfC3DB-66" style="edgeStyle=orthogonalEdgeStyle;rounded=0;orthogonalLoop=1;jettySize=auto;html=1;exitX=1;exitY=1;exitDx=0;exitDy=-15;exitPerimeter=0;entryX=0.067;entryY=0.267;entryDx=0;entryDy=0;entryPerimeter=0;" parent="1" source="E4Z5nEvZud3JDpQfC3DB-36" target="E4Z5nEvZud3JDpQfC3DB-22" edge="1">
          <mxGeometry relative="1" as="geometry" />
        </mxCell>
        <mxCell id="E4Z5nEvZud3JDpQfC3DB-36" value="Node Region 2" style="shape=cylinder3;whiteSpace=wrap;html=1;boundedLbl=1;backgroundOutline=1;size=15;" parent="1" vertex="1">
          <mxGeometry x="260" y="130" width="60" height="80" as="geometry" />
        </mxCell>
        <mxCell id="E4Z5nEvZud3JDpQfC3DB-37" value="Node Region 3" style="shape=cylinder3;whiteSpace=wrap;html=1;boundedLbl=1;backgroundOutline=1;size=15;" parent="1" vertex="1">
          <mxGeometry x="180" y="50" width="60" height="80" as="geometry" />
        </mxCell>
        <mxCell id="E4Z5nEvZud3JDpQfC3DB-39" value="Node Region 4" style="shape=cylinder3;whiteSpace=wrap;html=1;boundedLbl=1;backgroundOutline=1;size=15;" parent="1" vertex="1">
          <mxGeometry x="100" y="120" width="60" height="80" as="geometry" />
        </mxCell>
        <mxCell id="E4Z5nEvZud3JDpQfC3DB-41" value="" style="endArrow=classic;html=1;entryX=0;entryY=0.75;entryDx=0;entryDy=0;" parent="1" target="E4Z5nEvZud3JDpQfC3DB-24" edge="1">
          <mxGeometry width="50" height="50" relative="1" as="geometry">
            <mxPoint x="560" y="420" as="sourcePoint" />
            <mxPoint x="610" y="370" as="targetPoint" />
          </mxGeometry>
        </mxCell>
        <mxCell id="E4Z5nEvZud3JDpQfC3DB-42" value="" style="endArrow=classic;html=1;" parent="1" target="E4Z5nEvZud3JDpQfC3DB-23" edge="1">
          <mxGeometry width="50" height="50" relative="1" as="geometry">
            <mxPoint x="540" y="420" as="sourcePoint" />
            <mxPoint x="590" y="370" as="targetPoint" />
          </mxGeometry>
        </mxCell>
        <mxCell id="E4Z5nEvZud3JDpQfC3DB-46" value="" style="endArrow=classic;html=1;entryX=0.75;entryY=0;entryDx=0;entryDy=0;" parent="1" target="E4Z5nEvZud3JDpQfC3DB-26" edge="1">
          <mxGeometry width="50" height="50" relative="1" as="geometry">
            <mxPoint x="530" y="210" as="sourcePoint" />
            <mxPoint x="490" y="270" as="targetPoint" />
          </mxGeometry>
        </mxCell>
        <mxCell id="E4Z5nEvZud3JDpQfC3DB-47" value="" style="endArrow=classic;html=1;exitX=0.5;exitY=1;exitDx=0;exitDy=0;" parent="1" source="E4Z5nEvZud3JDpQfC3DB-23" edge="1">
          <mxGeometry width="50" height="50" relative="1" as="geometry">
            <mxPoint x="540" y="220" as="sourcePoint" />
            <mxPoint x="680" y="310" as="targetPoint" />
          </mxGeometry>
        </mxCell>
        <mxCell id="E4Z5nEvZud3JDpQfC3DB-54" value="" style="endArrow=classic;startArrow=classic;html=1;exitX=0.5;exitY=0;exitDx=0;exitDy=0;entryX=0.5;entryY=1;entryDx=0;entryDy=0;" parent="1" source="E4Z5nEvZud3JDpQfC3DB-14" target="E4Z5nEvZud3JDpQfC3DB-25" edge="1">
          <mxGeometry width="50" height="50" relative="1" as="geometry">
            <mxPoint x="505" y="530" as="sourcePoint" />
            <mxPoint x="555" y="480" as="targetPoint" />
          </mxGeometry>
        </mxCell>
        <mxCell id="E4Z5nEvZud3JDpQfC3DB-55" value="" style="endArrow=classic;startArrow=classic;html=1;exitX=0.5;exitY=0;exitDx=0;exitDy=0;entryX=0.5;entryY=1;entryDx=0;entryDy=0;" parent="1" edge="1">
          <mxGeometry width="50" height="50" relative="1" as="geometry">
            <mxPoint x="550" y="510" as="sourcePoint" />
            <mxPoint x="550" y="480" as="targetPoint" />
          </mxGeometry>
        </mxCell>
        <mxCell id="E4Z5nEvZud3JDpQfC3DB-59" value="" style="endArrow=classic;startArrow=classic;html=1;entryX=0.5;entryY=1;entryDx=0;entryDy=0;exitX=0.78;exitY=0;exitDx=0;exitDy=0;exitPerimeter=0;" parent="1" source="E4Z5nEvZud3JDpQfC3DB-4" target="E4Z5nEvZud3JDpQfC3DB-14" edge="1">
          <mxGeometry width="50" height="50" relative="1" as="geometry">
            <mxPoint x="390" y="590" as="sourcePoint" />
            <mxPoint x="440" y="540" as="targetPoint" />
          </mxGeometry>
        </mxCell>
        <mxCell id="E4Z5nEvZud3JDpQfC3DB-60" value="" style="endArrow=classic;startArrow=classic;html=1;" parent="1" edge="1">
          <mxGeometry width="50" height="50" relative="1" as="geometry">
            <mxPoint x="414" y="660" as="sourcePoint" />
            <mxPoint x="414" y="635" as="targetPoint" />
            <Array as="points">
              <mxPoint x="414" y="635" />
            </Array>
          </mxGeometry>
        </mxCell>
        <mxCell id="E4Z5nEvZud3JDpQfC3DB-68" value="Order Data" style="text;html=1;align=center;verticalAlign=middle;resizable=0;points=[];autosize=1;" parent="1" vertex="1">
          <mxGeometry x="465" y="730" width="70" height="20" as="geometry" />
        </mxCell>
        <mxCell id="E4Z5nEvZud3JDpQfC3DB-69" value="RDBMS" style="shape=cylinder3;whiteSpace=wrap;html=1;boundedLbl=1;backgroundOutline=1;size=15;" parent="1" vertex="1">
          <mxGeometry x="380" y="480" width="60" height="80" as="geometry" />
        </mxCell>
        <mxCell id="E4Z5nEvZud3JDpQfC3DB-72" value="DB Clusters" style="shape=cylinder3;whiteSpace=wrap;html=1;boundedLbl=1;backgroundOutline=1;size=15;" parent="1" vertex="1">
          <mxGeometry x="340" y="420" width="60" height="80" as="geometry" />
        </mxCell>
        <mxCell id="E4Z5nEvZud3JDpQfC3DB-73" value="DB Clusters" style="shape=cylinder3;whiteSpace=wrap;html=1;boundedLbl=1;backgroundOutline=1;size=15;" parent="1" vertex="1">
          <mxGeometry x="410" y="430" width="60" height="80" as="geometry" />
        </mxCell>
        <mxCell id="E4Z5nEvZud3JDpQfC3DB-74" value="Order Data" style="text;html=1;align=center;verticalAlign=middle;resizable=0;points=[];autosize=1;" parent="1" vertex="1">
          <mxGeometry x="290" y="730" width="70" height="20" as="geometry" />
        </mxCell>
        <mxCell id="E4Z5nEvZud3JDpQfC3DB-75" value="Location Data" style="text;html=1;align=center;verticalAlign=middle;resizable=0;points=[];autosize=1;" parent="1" vertex="1">
          <mxGeometry x="150" y="480" width="90" height="20" as="geometry" />
        </mxCell>
        <mxCell id="E4Z5nEvZud3JDpQfC3DB-76" value="Cell X" style="text;html=1;align=center;verticalAlign=middle;resizable=0;points=[];autosize=1;" parent="1" vertex="1">
          <mxGeometry x="600" y="240" width="50" height="20" as="geometry" />
        </mxCell>
        <mxCell id="E4Z5nEvZud3JDpQfC3DB-77" value="Cell Y" style="text;html=1;align=center;verticalAlign=middle;resizable=0;points=[];autosize=1;" parent="1" vertex="1">
          <mxGeometry x="610" y="370" width="50" height="20" as="geometry" />
        </mxCell>
        <mxCell id="E4Z5nEvZud3JDpQfC3DB-78" value="Cell Z" style="text;html=1;align=center;verticalAlign=middle;resizable=0;points=[];autosize=1;" parent="1" vertex="1">
          <mxGeometry x="540" y="310" width="50" height="20" as="geometry" />
        </mxCell>
        <mxCell id="E4Z5nEvZud3JDpQfC3DB-79" value="Cell K" style="text;html=1;align=center;verticalAlign=middle;resizable=0;points=[];autosize=1;" parent="1" vertex="1">
          <mxGeometry x="440" y="260" width="50" height="20" as="geometry" />
        </mxCell>
      </root>
    </mxGraphModel>
  </diagram>
</mxfile>
